<?xml version="1.0" encoding="UTF-8"?> <svg xmlns="http://www.w3.org/2000/svg" viewBox="0 0 166.77 60.99"><defs><style>.a{fill:#d4e3cf;}.b{fill:#4bcd71;}.c{fill:#00b836;}.d{fill:#fe0006;}.e{fill:#a74740;}.f{fill:#fefefe;}</style></defs><path class="a" d="M60.23,2.06q0,9,0,18a.24.24,0,0,1-.25.07,18.22,18.22,0,0,1-2.7-1.32c-.07,0-.08-.13-.09-.21v-.09h0s0,.08.07.12c.19-.2.11-.45.12-.67,0-.83-.07-1.64-.12-2.46A4.86,4.86,0,0,0,53,11.46c-3.61,0-7.23,0-10.84,0a4.71,4.71,0,0,0-4.35,4.39c0,3.07,0,6.13,0,9.2,0,.24-.09.52.16.72a7.7,7.7,0,0,1-3.28,1.51,1.35,1.35,0,0,0,.14-.88c0-5.4,0-10.79,0-16.18a5,5,0,0,1,5-5c5.07.07,10.15,0,15.22,0,.93,0,.93,0,.93-1V2.78C56,.94,56.15.68,57.82,0h.71l.56.28A1.8,1.8,0,0,1,60.23,2.06Z"></path><path class="b" d="M.15,38.18,0,38.2V11.46c2.34,0,4.68,0,7,0,.22,0,.47-.12.64.13-.28.29-.65.23-1,.24h-5c-1.25,0-1.26,0-1.26,1.24V36.89C.37,37.33.47,37.8.15,38.18Z"></path><path class="a" d="M60.24,56.34A4.82,4.82,0,0,1,55.59,61q-8,0-16,0a4.68,4.68,0,0,1-4.7-4.66c-.06-9.43,0-18.86,0-28.29l.52.08a.46.46,0,0,1,.28-.12h0c.68.14,1.36.23,2,.37.22,0,.51,0,.56.33h0c-.38,0-.44.22-.44.55,0,1.16.07,2.32,0,3.47a4.91,4.91,0,0,0,4.94,4.91h9.7a4.94,4.94,0,0,0,2-.46,5,5,0,0,0,2.88-4.87c0-1.71,0-3.43,0-5.15a.93.93,0,0,1-.16.18v0a.19.19,0,0,1,0-.1.51.51,0,0,1,.22-.3c.83-.47,1.63-1,2.46-1.45a.41.41,0,0,1,.27,0q0,9.58,0,19.16C60.23,48.52,60.21,52.43,60.24,56.34Z"></path><path class="c" d="M.15,38.18q0-13,0-25.91c0-.53.14-.69.67-.68,2.29,0,4.58,0,6.86,0l4.52,9c1.06,2.13,2.11,4.26,3.22,6.48.63-1.27,1.23-2.47,1.82-3.67,1.86-3.78,3.73-7.55,5.58-11.34a.9.9,0,0,1,.95-.61c2.1,0,4.21,0,6.31,0,.5,0,.68.09.68.65q0,12.73,0,25.46c0,.48-.09.65-.61.64-1.65,0-3.31,0-5,0-.61,0-.66-.23-.66-.73,0-5.28,0-10.56,0-15.9-.34.12-.36.4-.46.61Q21,28.57,18,34.94a.88.88,0,0,1-.95.62c-1.08-.05-2.17,0-3.25,0a.81.81,0,0,1-.9-.57Q9.8,28.58,6.7,22.2a1.32,1.32,0,0,0-.43-.56v.67c0,5.07,0,10.13,0,15.2,0,.53-.09.73-.68.71C3.78,38.17,2,38.19.15,38.18Z"></path><path class="c" d="M89.42,24.87c0-4.24,0-8.48,0-12.73,0-.51.11-.67.66-.67q9.92,0,19.83,0c.54,0,.67.15.66.67,0,1.39,0,2.78,0,4.17,0,.6-.11.79-.76.79-4.16,0-8.31,0-12.47,0-1.06,0-.91-.13-.92,1s0,2.21,0,3.32c0,.54.11.72.69.71,3.77,0,7.55,0,11.33,0,.56,0,.78.09.75.71,0,1.39,0,2.78,0,4.17,0,.52-.11.67-.66.67-3.77,0-7.55,0-11.33,0-.61,0-.82.12-.79.77.06,1.22,0,2.45,0,3.67,0,.51.16.63.64.62,4.37,0,8.74,0,13.1,0,.66,0,.84.17.81.81,0,1.41,0,2.83,0,4.24,0,.4-.11.53-.52.53q-10.26,0-20.54,0c-.54,0-.47-.29-.47-.62Z"></path><path class="c" d="M166.76,38q-5.47-13-11-26.09a.57.57,0,0,0-.63-.41h-6.23a.63.63,0,0,0-.69.44q-5.52,12.87-11.08,25.74c-.23.54,0,.56.42.55,2,0,4,0,6,0a.68.68,0,0,0,.76-.54c.47-1.23,1-2.45,1.44-3.68a.64.64,0,0,1,.7-.51q5.28,0,10.56,0a.63.63,0,0,1,.7.5c.46,1.26,1,2.5,1.45,3.76.11.28.21.47.58.47,2.31,0,4.63,0,7,0C166.76,38.07,166.78,38,166.76,38Zm-18.63-9.85c1.23-3.15,2.45-6.24,3.72-9.48l3.65,9.48Z"></path><path class="c" d="M126.66,11a20,20,0,0,1,9.07,2.65c.45.25.53.46.3.93-.74,1.47-1.44,3-2.12,4.46-.21.48-.39.48-.82.24a21.12,21.12,0,0,0-7-2.49,5.42,5.42,0,0,0-2.59.16,1.77,1.77,0,0,0-.67,3,4.75,4.75,0,0,0,1.94,1.13c2,.67,4.08,1.32,6.11,2a8.7,8.7,0,0,1,3.82,2.46,7.69,7.69,0,0,1-1.17,10.75,11.53,11.53,0,0,1-6.58,2.3,19.69,19.69,0,0,1-13.17-3.83c-.43-.32-.55-.55-.27-1.08.77-1.42,1.47-2.89,2.17-4.36.2-.4.32-.43.69-.14a16.4,16.4,0,0,0,8.8,3.71,5,5,0,0,0,2.5-.33,2,2,0,0,0,.5-3.54,6.63,6.63,0,0,0-2.42-1.13,54.79,54.79,0,0,1-6.25-2c-2.2-1-3.9-2.4-4.41-4.88A7.61,7.61,0,0,1,119.78,12C121.48,11.3,123.3,11,126.66,11Z"></path><path class="c" d="M86.71,19.69a8.18,8.18,0,0,0-5.6-7.38,13.84,13.84,0,0,0-4.93-.82c-3.76,0-7.51,0-11.27,0-.55,0-.71.14-.71.7,0,4.22,0,8.44,0,12.66s0,8.49,0,12.73c0,.54.15.67.67.66,1.91,0,3.83,0,5.74,0,.48,0,.65-.11.64-.62,0-2,0-4,0-6,0-.62.15-.77.77-.78a36.42,36.42,0,0,0,7-.25c3.56-.69,6.14-2.56,7.28-6.12A11.74,11.74,0,0,0,86.71,19.69ZM79.93,22.5a3.61,3.61,0,0,1-3.36,2.68c-1.62.15-3.25,0-4.88.08-.4,0-.46-.18-.46-.51,0-1.2,0-2.41,0-3.61s0-2.31,0-3.46c0-.44.09-.62.57-.61,1.37,0,2.74,0,4.11,0C79.1,17.17,80.77,19.42,79.93,22.5Z"></path><path class="d" d="M63.34,22.24a17.89,17.89,0,0,1-3.13,3.2l-2.82,1.71a.93.93,0,0,1-.16.18v0a.19.19,0,0,1,0-.1,28.75,28.75,0,0,1-11.59,2.1,63.1,63.1,0,0,1-7.39-.6h0l-2.87-.58a.46.46,0,0,1,.28-.12h0a3.11,3.11,0,0,1,.53,0A14.07,14.07,0,0,0,44.91,25a25.3,25.3,0,0,0,6.94-8.18c.23-.4.38-.51.84-.28,1.48.75,3,1.43,4.49,2.14v-.09h0s0,.08.07.12a27.55,27.55,0,0,0,2.95,1.42c1,.49,2,1,3,1.45C63.6,21.73,63.6,21.89,63.34,22.24Z"></path><path class="e" d="M44.91,25A14.07,14.07,0,0,1,36.21,28a3.11,3.11,0,0,0-.53,0h0a.46.46,0,0,0-.28.12L34.88,28h0l-1.39-.47s-.06-.06-.09-.11l1.33-.18A7.7,7.7,0,0,0,38,25.77l.06,0h0a16.45,16.45,0,0,0,3.69-3.8,8.25,8.25,0,0,0,3,2.94Z"></path><path class="f" d="M57.2,18.55h0v.09l.09,0S57.24,18.57,57.2,18.55Z"></path><path class="f" d="M38.28,28.7h0Zm19-1.5a.19.19,0,0,0,0,.1v0a.93.93,0,0,0,.16-.18Z"></path></svg> 