<?xml version="1.0" encoding="UTF-8"?><svg id="a" xmlns="http://www.w3.org/2000/svg" xmlns:xlink="http://www.w3.org/1999/xlink" viewBox="0 0 355 242"><defs><style>.e{fill:none;}.f{fill:#f598a4;}.g{fill:#f9cad1;}.h{fill:#f2737e;}.i{fill:#ea9c7a;}.j{fill:#fff;}.k{fill:#91a4df;}.l{fill:#73b471;}.m{fill:#7c94d8;}.n{fill:#9886bf;}.o{fill:#b5c2e6;}.p{fill:#8e235e;}.q{fill:#c29575;}.r{fill:#b9d8f9;}.s{fill:#865391;}.t{fill:#a8bfff;}.u{fill:#a77860;}.v{fill:#c17459;}.w{fill:#ab3773;}.x{fill:#cad9fc;}.y{fill:#dfe8ff;}.a`{fill:#d5def1;}.aa{fill:#232c70;}.ab{fill:#212859;}.ac{fill:#23344a;}.ad{fill:#223247;}.ae{fill:#402961;}.af{fill:#96619f;}.ag{fill:#89b1ff;}.ah{fill:#6d76ff;}.ai{fill:#87aaf9;}.aj{fill:#493268;}.ak{fill:#392054;}.al{fill:#617dbc;}.am{fill:#455196;}.an{fill:#eee3ff;opacity:.3;}.an,.ao{isolation:isolate;}.ap{clip-path:url(#c);}</style><clipPath id="c"><rect class="e" width="355" height="242"/></clipPath></defs><g id="b"><g class="ap"><g><path class="o" d="M74,106.5c0-.9,0-1.8,.1-2.8,0-.2,.3-.4,.5-.4s.4,.2,.4,.5c-.1,1.8-.1,3.6,0,5.4,0,.3-.1,.5-.4,.5s-.5-.1-.5-.4c-.1-.9-.1-1.9-.1-2.8h0Zm1-8.1h0c.5-1.9,1.2-3.7,2-5.4,.1-.3,.4-.3,.6-.3,.2,.1,.2,.4,.2,.6-.8,1.7-1.4,3.3-1.9,5-.1,.3-.3,.4-.5,.3-.3,.2-.4,0-.4-.2Zm0,16.2c0-.2,.1-.4,.4-.4,.3-.1,.5,.1,.5,.2,.5,1.7,1.2,3.4,1.9,5,.1,.3,0,.5-.2,.6s-.5,0-.6-.2c-.7-1.6-1.4-3.4-2-5.2,.1,0,0,0,0,0Zm4.8-26c0-.1,0-.2,.1-.3,1.2-1.5,2.4-2.8,3.7-4.1,.1-.1,.5-.1,.6,0s.1,.5,0,.6c-1.3,1.2-2.6,2.6-3.6,3.9-.1,.3-.4,.3-.6,.1,0,.1-.2-.1-.2-.2h0Zm.2,35.7c0-.1,0-.2,.1-.4,.2-.1,.5-.1,.6,.1,1,1.4,2.3,2.8,3.6,3.9,.1,.1,.2,.5,0,.6-.1,.1-.5,.3-.6,0-1.4-1.3-2.7-2.7-3.7-4.1,0,.2,0-.1,0-.1Zm7.9-43c0-.1,.1-.3,.3-.4,1.5-1,3.2-1.8,5-2.4,.2-.1,.5,0,.6,.3s0,.5-.2,.6c-1.7,.6-3.3,1.4-4.8,2.4-.2,.1-.5,.1-.6-.1-.3-.2-.3-.3-.3-.4h0Zm.1,50.3c0-.1,0-.2,.1-.3,.1-.2,.4-.2,.6-.1,1.5,.9,3.2,1.8,4.8,2.4,.2,.1,.4,.4,.2,.6s-.4,.4-.6,.3c-1.7-.6-3.4-1.5-5-2.4-.1-.1-.1-.4-.1-.5h0Zm10.1-54.2c0-.3,.1-.4,.4-.4,1.8-.4,3.7-.5,5.5-.5,.2,0,.5,.3,.5,.5s-.2,.5-.5,.5c-1.8,0-3.6,.1-5.4,.5-.3-.1-.5-.3-.5-.6h0Zm0,58.2c0-.4,.2-.5,.5-.4,1.8,.4,3.6,.5,5.4,.5,.2,0,.5,.3,.5,.5s-.1,.5-.4,.5c-1.9,0-3.7-.1-5.6-.5-.3-.3-.4-.4-.4-.6h0Zm10.8-58.2s0-.1,0,0c0-.4,.2-.5,.5-.4,1.8,.4,3.6,.9,5.4,1.5,.2,.1,.4,.4,.2,.6s-.4,.4-.6,.3c-1.7-.6-3.4-1.2-5.2-1.4-.2-.2-.3-.5-.3-.6h0Zm.1,58.2c0-.3,.1-.4,.4-.4,1.8-.4,3.4-.9,5.2-1.5,.2-.1,.5,0,.6,.3s0,.5-.3,.6c-1.7,.6-3.6,1.1-5.3,1.5-.3,0-.6-.3-.6-.5h0Zm10-54.4c0-.1,0-.2,.1-.3,.1-.3,.4-.3,.6-.1,1.5,1,3.1,2,4.5,3.3,.1,.1,.3,.5,0,.6-.1,.1-.5,.3-.6,0-1.3-1.2-2.8-2.3-4.3-3.2-.2,.1-.3,0-.3-.3h0Zm.1,50.4c0-.1,.1-.3,.2-.4,1.5-.9,2.9-2,4.3-3.3,.1-.1,.5-.1,.6,0s.1,.5,0,.6c-1.4,1.3-2.8,2.4-4.5,3.3-.2,.1-.5,.1-.6-.1v-.1h0Zm8.1-43c0-.1,0-.3,.1-.4,.2-.1,.5-.1,.6,.1,1.1,1.5,2,3.1,2.9,4.7,.1,.3,0,.5-.3,.6-.2,.1-.5,0-.6-.3-.8-1.7-1.8-3.2-2.8-4.6,.1,.2,.1-.1,.1-.1Zm4.8,9.7c0-.3,.1-.4,.4-.4,.3-.1,.5,.1,.5,.3,.5,1.8,.9,3.6,1,5.5,0,.3-.1,.5-.4,.5s-.5-.1-.5-.4c-.2-1.9-.5-3.7-1-5.5,0,.2,0,0,0,0h0Z"/><path class="o" d="M308.5,105.7c-.8,0-1.7,0-2.4-.1-.3,0-.4-.3-.4-.4,0-.3,.3-.4,.4-.4,1.5,.1,3.2,.1,4.7,0,.3,0,.4,.1,.4,.4s-.1,.4-.4,.4c-.8,0-1.6,.1-2.3,.1Zm-7.2-1c-1.7-.5-3.2-1-4.6-1.8-.3-.1-.3-.4-.1-.5,.1-.3,.4-.3,.5-.1,1.4,.6,2.9,1.3,4.3,1.7,.3,0,.4,.2,.3,.5,0,.1-.1,.2-.4,.2Zm14.2,0c-.1,0-.4-.1-.4-.3s0-.4,.2-.5c1.5-.4,2.9-1,4.3-1.7,.3-.1,.4,0,.5,.1,.1,.2,0,.4-.1,.5-1.3,.9-2.9,1.4-4.5,1.9q.1,0,0,0Zm-22.7-4.2c-.1,0-.2,0-.3-.1-1.3-1-2.5-2-3.6-3.3-.1-.1-.1-.4,0-.5s.4-.1,.5,0c1,1.2,2.2,2.2,3.4,3.2,.1,.1,.3,.4,.1,.5,.1,.1,0,.2-.1,.2h0Zm31.2,0c-.1,0-.3,0-.3-.1-.1-.1-.1-.4,.1-.5,1.3-.9,2.4-2,3.4-3.2,.1-.1,.4-.1,.5,0s.1,.4,0,.5c-1.1,1.2-2.3,2.3-3.6,3.3,0-.1,0,0-.1,0h0Zm-37.6-7c-.1,0-.3-.1-.4-.1-.9-1.4-1.5-2.8-2.2-4.3-.1-.3,0-.4,.3-.5s.4,0,.5,.3c.5,1.4,1.3,2.9,2.2,4.2,.1,.1,0,.4-.1,.5h-.3v-.1Zm44-.2h-.3c-.1-.1-.3-.4-.1-.5,.8-1.3,1.5-2.8,2-4.2,.1-.3,.3-.3,.5-.3,.2,.1,.2,.3,.2,.5-.6,1.5-1.3,2.9-2.2,4.3,.1,.2,0,.2-.1,.2h0Zm-47.5-8.8c-.1,0-.4-.1-.4-.4-.3-1.5-.5-3.2-.5-4.8,0-.3,.1-.4,.4-.4s.4,.1,.4,.4c0,1.5,.1,3.2,.4,4.7,.1,.3,0,.5-.3,.5h0Zm50.9,0c-.3,0-.4-.3-.4-.5,.2-1.5,.4-3.1,.4-4.7,0-.3,.1-.4,.4-.4s.4,.1,.4,.4c0,1.7-.1,3.3-.4,4.8,0,.3-.1,.4-.4,.4Zm-50.9-9.4c-.2,0-.4-.3-.4-.5,.3-1.5,.8-3.2,1.3-4.7,.1-.3,.3-.3,.5-.3,.3,.1,.3,.3,.3,.5-.5,1.4-1,2.9-1.3,4.5,0,.4-.2,.5-.4,.5h0Zm50.9-.1c-.1,0-.4-.1-.4-.4-.3-1.5-.8-3.1-1.3-4.5-.1-.3,0-.4,.3-.5s.4,0,.5,.3c.6,1.5,1,3.1,1.3,4.7,.1,.1-.1,.3-.4,.4,.2,0,0,0,0,0h0Zm-47.4-8.8h-.3c-.1-.1-.3-.4-.1-.5,.9-1.4,1.8-2.7,2.9-3.8,.1-.1,.4-.1,.5,0s.1,.4,0,.5c-1,1.2-2,2.4-2.8,3.7,0,.1-.1,.1-.2,.1h0Zm44-.2c-.1,0-.3-.1-.4-.1-.9-1.3-1.8-2.6-2.8-3.7-.1-.1-.1-.4,0-.5s.4-.1,.5,0c1.1,1.1,2,2.5,2.9,3.8,.1,.1,0,.4-.1,.5h-.1Zm-37.6-6.8c-.1,0-.3,0-.3-.1-.1-.1-.1-.4,.1-.5,1.3-1,2.7-1.8,4.1-2.5,.2-.1,.4,0,.5,.1,.1,.3,0,.4-.1,.5-1.4,.8-2.8,1.5-4,2.5h-.3Zm8.5-4.4c-.1,0-.4-.1-.4-.3,0-.3,0-.4,.3-.5,1.5-.4,3.2-.8,4.7-.9,.2,0,.4,.1,.4,.4s-.1,.4-.4,.4c-1.4,.3-3.1,.5-4.6,.9h0Z"/><path class="o" d="M153.9,43.3h-2.7v-1.4h2.7v1.4Zm-2.5-.1h2.4v-1.2h-2.4v1.2Z"/><path class="o" d="M153.4,49.1h-1.7v-6h1.7v6Zm-1.5-.2h1.4v-5.6h-1.4v5.6Z"/><path class="o" d="M164,50.5h-13.3v-1.5h13.3v1.5Zm-13.1-.1h13v-1.3h-13v1.3Z"/><path class="o" d="M163.6,43.3h-2.7v-1.4h2.7v1.4Zm-2.5-.1h2.4v-1.2h-2.4v1.2Z"/><path class="o" d="M163.1,49.1h-1.7v-6h1.7v6Zm-1.5-.2h1.4v-5.6h-1.4v5.6Z"/><path class="o" d="M157.6,48.3h-.5v-.6c-.4,0-.8-.1-1-.3l.2-.5h.1c.2,.1,.6,.3,.9,.3,.4,0,.8-.3,.8-.6s-.2-.5-.6-.8c-.6-.3-1.1-.5-1.1-1.2,0-.5,.4-1,1-1.2v-.6h.5v.6c.2,0,.6,.1,.8,.3l-.3,.5h-.1c-.1-.1-.4-.3-.8-.3-.5,0-.6,.3-.6,.5s.1,.4,.8,.6c.8,.3,1,.6,1,1.3,0,.5-.4,1-1,1.2l-.1,.8h0Zm-.4-.1h.2v-.6c.6-.1,1-.6,1-1,0-.5-.3-.9-1-1.2-.6-.3-.9-.4-.9-.8,0-.3,.3-.6,.8-.6,.4,0,.6,.1,.8,.3l.1-.3c-.2-.1-.5-.1-.8-.3v-.6h-.2v.6c-.5,.1-.9,.5-.9,1s.3,.8,1,1c.5,.3,.8,.5,.8,.9s-.4,.8-.9,.8c-.3,0-.6-.1-.9-.3l-.1,.3c.3,.1,.6,.3,.9,.3v.5h.1Z"/><path class="o" d="M342.4,195.9v-.8c-.4,0-.9-.1-1.1-.3l.1-.5c.3,.1,.6,.3,1,.3,.5,0,.9-.3,.9-.8,0-.4-.3-.6-.8-.9-.8-.2-1.1-.6-1.1-1.3s.4-1,1.1-1.1v-.8h.5v.6c.4,0,.8,.1,.9,.3l-.1,.5c-.1-.1-.5-.3-.9-.3-.5,0-.8,.4-.8,.6,0,.4,.3,.5,.9,.8,.8,.3,1.1,.6,1.1,1.3,0,.5-.4,1.1-1.1,1.3v.8h-.6v.3h0Z"/><path class="o" d="M342.6,197.3c-2.4,0-4.5-2-4.5-4.5s2-4.5,4.5-4.5,4.5,2,4.5,4.5c-.1,2.5-2,4.5-4.5,4.5Zm0-8.7c-2.3,0-4.2,1.9-4.2,4.2s1.9,4.2,4.2,4.2,4.2-1.9,4.2-4.2-1.9-4.2-4.2-4.2Z"/><path class="o" d="M235.1,76.2h-16.7v-9.1h16.7v9.1Zm-16.4-.2h16.3v-8.7h-16.3v8.7h0Z"/><path class="o" d="M232.1,75h-10.6v-.1c0-.9-.8-1.8-1.8-1.8h-.1v-2.8h.1c.9,0,1.8-.8,1.8-1.8v-.1h10.6v.1c0,.9,.8,1.8,1.8,1.8h.1v2.8h-.1c-1.1,.1-1.8,.9-1.8,1.9h0Zm-10.3-.3h10.2c0-1,.9-1.8,1.8-1.8v-2.4c-1,0-1.8-.9-1.8-1.8h-10.2c0,1-.9,1.8-1.8,1.8v2.4c.9,0,1.6,.9,1.8,1.8Z"/><path class="o" d="M228,73.2h-2.4c-.8,0-1.5-.6-1.5-1.5,0-.8,.6-1.5,1.5-1.5h2.4c.8,0,1.5,.6,1.5,1.5s-.7,1.5-1.5,1.5Zm-2.4-2.8c-.8,0-1.3,.6-1.3,1.3,0,.8,.6,1.3,1.3,1.3h2.4c.8,0,1.3-.6,1.3-1.3,0-.8-.6-1.3-1.3-1.3h-2.4Z"/><path class="o" d="M222,72.8c-.5,0-1-.5-1-1s.5-1,1-1,1,.5,1,1-.5,1-1,1Zm0-1.9c-.5,0-.9,.4-.9,.9s.4,.9,.9,.9,.9-.4,.9-.9-.4-.9-.9-.9Z"/><path class="o" d="M231.6,72.8c-.5,0-1-.5-1-1s.5-1,1-1,1,.5,1,1-.5,1-1,1Zm0-1.9c-.5,0-.9,.4-.9,.9s.4,.9,.9,.9,.9-.4,.9-.9c-.2-.5-.5-.9-.9-.9Z"/><path class="o" d="M270.9,41.3c-.6-1.3-1.7-2.3-2.9-2.5h-.1l.8-3.1h.1c2.2,.5,4.1,2.2,5.1,4.2v.1l-3,1.3h0Zm-2.9-2.7c1.3,.4,2.4,1.3,2.9,2.5l2.5-1.2c-.9-1.9-2.7-3.4-4.7-4.1l-.7,2.8h0Z"/><path class="o" d="M265.1,52c-4.1,0-7.5-3.3-7.5-7.5s3.3-7.5,7.5-7.5c.6,0,1.1,.1,1.8,.3h.1l-.8,3.1h-.1c-.4-.1-.8-.1-1-.1-2.4,0-4.3,1.9-4.3,4.3s1.9,4.3,4.3,4.3c.6,0,1.3-.1,1.9-.5h.1l1.4,2.8h-.1c-1,.6-2,.8-3.3,.8h0Zm0-14.8c-4.1,0-7.3,3.3-7.3,7.3s3.3,7.3,7.3,7.3c1.1,0,2.2-.3,3.2-.8l-1.3-2.4c-.6,.3-1.3,.4-1.9,.4-2.5,0-4.6-2-4.6-4.6s2-4.6,4.6-4.6c.4,0,.6,0,1,.1l.6-2.7h-1.6Z"/><path class="o" d="M269.1,50.9l-1.7-2.7h.1c1.3-.8,2-2.2,2-3.7,0-.6-.1-1.2-.4-1.8v-.1l2.8-1.3v.1c.4,1,.6,1.9,.6,3.1,.1,2.5-1.1,4.9-3.4,6.4h0Zm-1.4-2.6l1.5,2.3c2-1.4,3.3-3.6,3.3-6.1,0-1-.3-1.9-.6-2.8l-2.5,1.2c.3,.5,.4,1.2,.4,1.8-.1,1.3-.8,2.7-2.1,3.6h0Z"/><path class="o" d="M90.9,50.1h2.2v6.5h-2v-6.5h-.2Zm1.9,.1h-1.7v6.1h1.7v-6.1Z"/><path class="o" d="M94.1,51.6h2v5h-2v-5Zm1.9,.3h-1.7v4.6h1.7v-4.6Z"/><path class="o" d="M87.9,47.8h2v8.8h-2v-8.8Zm1.8,.1h-1.7v8.4h1.7c0,.1,0-8.4,0-8.4Z"/><path class="o" d="M84.7,45.9h2v10.7h-2v-10.7Zm1.9,.1h-1.7v10.3h1.7v-10.3Z"/><path class="o" d="M98.8,51.6c0,.1-.1,.1-.1,.1l-14.3-8.5v-.1h.1l14.3,8.5Z"/><path class="o" d="M85.8,42.6q0,.1-.1,.1l-1.5,.3,.9,1.4v.1h-.1l-.9-1.5v-.1h.1l1.6-.3c-.1-.2,0,0,0,0Z"/><path class="o" d="M324.3,59.4h-2v-6.5h2v6.5Zm-1.8-.1h1.7v-6.1h-1.7v6.1Z"/><path class="o" d="M321.2,59.4h-2v-8.8h2v8.8Zm-1.9-.1h1.7v-8.4h-1.7v8.4Z"/><path class="o" d="M309.7,52.9h2v6.5h-2v-6.5Zm1.8,.3h-1.7v6.1h1.7v-6.1Z"/><path class="o" d="M312.8,50.6h2v8.8h-2v-8.8Zm1.9,.3h-1.7v8.4h1.7v-8.4Z"/><path class="o" d="M318,59.4h-2v-11.2h2v11.2Zm-1.8-.1h1.7v-10.9h-1.7v10.9Z"/><path class="o" d="M317,46.8l6.9,2.8s.1,.1,0,.1c0,0-.1,.1-.1,0l-6.8-2.8-7.4,3.1h-.1v-.1l7.5-3.1h0Z"/><path class="o" d="M322.4,50.1q0-.1,.1-.1h1.7l-.6-1.5v-.1h.1l.6,1.7v.1h-1.9q.1-.1,0-.1h0Z"/><path class="o" d="M336.4,140.4c-3.4,0-6.2-2.8-6.2-6.2s2.8-6.2,6.2-6.2,6.2,2.8,6.2,6.2-2.8,6.2-6.2,6.2Zm0-12.3c-3.3,0-6.1,2.7-6.1,6.1s2.7,6.1,6.1,6.1,6.1-2.7,6.1-6.1c-.1-3.5-2.8-6.1-6.1-6.1Z"/><path class="o" d="M336.4,137.9c-2,0-3.7-1.7-3.7-3.7s1.7-3.7,3.7-3.7,3.7,1.7,3.7,3.7-1.7,3.7-3.7,3.7Zm0-7.3c-1.9,0-3.4,1.5-3.4,3.4s1.5,3.4,3.4,3.4,3.4-1.5,3.4-3.4-1.5-3.4-3.4-3.4Z"/><path class="o" d="M336.4,135.8c-.9,0-1.7-.8-1.7-1.7s.8-1.7,1.7-1.7,1.7,.8,1.7,1.7-.8,1.7-1.7,1.7Zm0-3.2c-.9,0-1.5,.6-1.5,1.5s.6,1.5,1.5,1.5,1.5-.6,1.5-1.5-.7-1.5-1.5-1.5Z"/><path class="o" d="M336.4,134.2q-.1,0,0,0l-9.8-5.2s-.1-.1,0-.1c0,0,.1-.1,.1,0l9.8,5.2c-.1-.2-.1-.1-.1,.1,0-.2,0,0,0,0Z"/><path class="o" d="M328.7,129.7l-.8-1.4-1.5-1.1,.5,1.4v.1h-.1l-.6-1.8v-.1h.1l1.9,1.4,.6,1.4c.1,0,0,.1-.1,.1q.1,0,0,0h0Z"/><path class="o" d="M327.2,130.5l-2.3-.6s-.1,0-.1-.1c0,0,0-.1,.1-.1l1.7-.4s.1,0,.1,.1c0,0,0,.1-.1,.1l-1.3,.4,1.9,.5,1.4-.1s.1,0,.1,.1c0,0,0,.1-.1,.1h-1.4Z"/><path class="n" d="M136.4,127.7c3.8-4.8,7-16.2,6.4-16.5-2.2-.4-5.5,3.3-13.9,0s-17.1-2-16.1,.4c.9,2.4,3.6,13.7,6.4,16.1,2.9,2.4,17.3,0,17.2,0h0Z"/><path class="n" d="M135.9,133.1h-16.6c-56.2,49.8-50.1,96.1-32.3,96.1h81c17.9,0,24.2-46.3-32.1-96.1Z"/><path class="ae" d="M136.6,134.7h-18.2c-.9,0-1.5-.6-1.5-1.5v-1.5c0-.9,.6-1.5,1.5-1.5h18.2c.9,0,1.5,.6,1.5,1.5v1.5c0,.8-.6,1.5-1.5,1.5Z"/><path class="ae" d="M136.6,130.3h-18.2c-.9,0-1.5-.6-1.5-1.5v-1.5c0-.9,.6-1.5,1.5-1.5h18.2c.9,0,1.5,.6,1.5,1.5v1.5c0,.9-.6,1.5-1.5,1.5Z"/><path class="ae" d="M119.5,201.1v-4.1c-2.3,0-4.7-.8-6.1-1.8l.9-2.7c1.4,.9,3.4,1.7,5.7,1.7,2.8,0,4.7-1.7,4.7-4s-1.5-3.6-4.5-4.7c-4.1-1.5-6.6-3.4-6.6-6.9s2.3-5.9,6-6.4v-4.1h2.4v3.8c2.4,.1,4.1,.8,5.2,1.4l-1,2.7c-.9-.5-2.4-1.4-5-1.4-3.1,0-4.2,1.8-4.2,3.4,0,2,1.5,3.1,5,4.6,4.1,1.7,6.1,3.7,6.1,7.3,0,3.2-2.2,6.1-6.2,6.8v4.1h-2.4v.3h0Z"/><path class="l" d="M212.7,214.4s4.1,.5,6.5,4.1l-.5,.4s-3.2-3.4-5.7-3.9c-2.5-.6-.3-.6-.3-.6h0Z"/><path class="ah" d="M216.3,229h83.8l7.6-91.7-88.5,.1c-.8,0-4.2-.1-4.3,3.1l-3.4,81.7c-.3,3.6,1.9,6.8,4.8,6.8h0Z"/><path class="x" d="M319.3,229l-89,.1c-1.7,0-3.2-1.5-3.4-3.6l-10.1-68.5-.6-4.2-1.5-10.8c-.4-2.4,1-4.6,3.1-4.6l89-.1c1.7,0,3.2,1.5,3.4,3.6l1.8,11.9,.6,4.1,10,67.5c.2,2.4-1.2,4.5-3.3,4.6h0Z"/><path class="ag" d="M311.9,152.7h-95.6l-1.5-10.8c-.4-2.4,1-4.6,3.1-4.6l89-.1c1.7,0,3.2,1.5,3.4,3.6l1.6,11.9h0Z"/><path class="y" d="M247,214.7h-9.8c-.8,0-1.5-.6-1.7-1.5l-1.5-9.8c-.1-.8,.4-1.5,1.3-1.5h9.8c.8,0,1.5,.6,1.7,1.5l1.5,9.8c.1,.8-.5,1.5-1.3,1.5h0Z"/><path class="y" d="M263.5,214.7h-9.8c-.8,0-1.5-.6-1.7-1.5l-1.5-9.8c-.1-.8,.4-1.5,1.3-1.5h9.8c.8,0,1.5,.6,1.7,1.5l1.5,9.8c.1,.8-.6,1.5-1.3,1.5h0Z"/><path class="y" d="M244.2,196.3h-9.8c-.8,0-1.5-.6-1.7-1.5l-1.5-9.8c-.1-.8,.4-1.5,1.3-1.5h9.8c.8,0,1.5,.6,1.7,1.5l1.5,9.8c.1,.9-.5,1.5-1.3,1.5h0Z"/><path class="y" d="M307.1,178.4h-9.8c-.8,0-1.5-.6-1.7-1.5l-1.5-9.8c-.1-.8,.4-1.5,1.3-1.5h9.8c.8,0,1.5,.6,1.7,1.5l1.5,9.8c-.1,.9-.6,1.5-1.3,1.5Z"/><path class="y" d="M279.8,214.7h-9.8c-.8,0-1.5-.6-1.7-1.5l-1.5-9.8c-.1-.8,.4-1.5,1.3-1.5h9.8c.8,0,1.5,.6,1.7,1.5l1.5,9.8c.1,.8-.4,1.5-1.3,1.5h0Z"/><path class="y" d="M293.4,196.3h-9.8c-.8,0-1.5-.6-1.7-1.5l-1.5-9.8c-.1-.8,.4-1.5,1.3-1.5h9.8c.8,0,1.5,.6,1.7,1.5l1.5,9.8c.1,.9-.5,1.5-1.3,1.5h0Z"/><path class="y" d="M257.9,178.4h-9.8c-.8,0-1.5-.6-1.7-1.5l-1.5-9.8c-.1-.8,.4-1.5,1.3-1.5h9.8c.8,0,1.5,.6,1.7,1.5l1.5,9.8c-.1,.9-.6,1.5-1.3,1.5h0Z"/><path class="h" d="M277,196.3h-9.8c-.8,0-1.5-.6-1.7-1.5l-1.5-9.8c-.1-.8,.4-1.5,1.3-1.5h9.8c.8,0,1.5,.6,1.7,1.5l1.5,9.8c.1,.9-.4,1.5-1.3,1.5h0Z"/><path class="y" d="M309.9,196.3h-9.8c-.8,0-1.5-.6-1.7-1.5l-1.5-9.8c-.1-.8,.4-1.5,1.3-1.5h9.8c.8,0,1.5,.6,1.7,1.5l1.5,9.8c.1,.9-.6,1.5-1.3,1.5h0Z"/><path class="y" d="M296.2,214.7h-9.8c-.8,0-1.5-.6-1.7-1.5l-1.5-9.8c-.1-.8,.4-1.5,1.3-1.5h9.8c.8,0,1.5,.6,1.7,1.5l1.5,9.8c.1,.8-.4,1.5-1.3,1.5h0Z"/><path class="y" d="M274.2,178.4h-9.8c-.8,0-1.5-.6-1.7-1.5l-1.5-9.8c-.1-.8,.4-1.5,1.3-1.5h9.8c.8,0,1.5,.6,1.7,1.5l1.5,9.8c.1,.9-.4,1.5-1.3,1.5h0Z"/><path class="ag" d="M271.4,170.3h-6.5c-.1,0-.2-.1-.2-.2s.1-.3,.2-.3h6.5c.1,0,.2,.1,.2,.3s-.1,.2-.2,.2Z"/><path class="ag" d="M271.6,171.8h-6.5c-.1,0-.3-.1-.3-.3s.1-.2,.3-.2h6.5c.1,0,.2,.1,.2,.2s-.1,.3-.2,.3Z"/><path class="ag" d="M271.9,173.3h-6.5c-.1,0-.3-.1-.3-.3s.1-.3,.3-.3h6.5c.1,0,.3,.1,.3,.3s-.2,.3-.3,.3Z"/><path class="ag" d="M306.9,188.1h-6.5c-.1,0-.3-.1-.3-.3s.1-.2,.3-.2h6.5c.1,0,.3,.1,.3,.2s-.1,.3-.3,.3Z"/><path class="ag" d="M307.2,189.7h-6.5c-.1,0-.2-.1-.2-.3s.1-.2,.2-.2h6.5c.1,0,.3,.1,.3,.2s-.2,.3-.3,.3Z"/><path class="ag" d="M307.5,191.2h-6.5c-.1,0-.3-.1-.3-.3s.1-.2,.3-.2h6.5c.1,0,.3,.1,.3,.2-.1,0-.2,.3-.3,.3Z"/><path class="ag" d="M260.5,207.1h-6.5c-.1,0-.2-.1-.2-.2s.1-.3,.2-.3h6.5c.1,0,.3,.1,.3,.3,0,0-.2,.2-.3,.2Z"/><path class="ag" d="M260.8,208.5h-6.5c-.1,0-.3-.1-.3-.3s.1-.3,.3-.3h6.5c.1,0,.3,.1,.3,.3s-.2,.3-.3,.3Z"/><path class="ag" d="M261,210.1h-6.5c-.1,0-.2-.1-.2-.3s.1-.3,.2-.3h6.5c.1,0,.3,.1,.3,.3s-.1,.3-.3,.3Z"/><path class="ag" d="M293.3,207.1h-6.5c-.1,0-.3-.1-.3-.2s.1-.3,.3-.3h6.5c.1,0,.3,.1,.3,.3,.1,0,0,.2-.3,.2Z"/><path class="ag" d="M293.7,208.5h-6.5c-.1,0-.2-.1-.2-.3s.1-.3,.2-.3h6.5c.1,0,.3,.1,.3,.3s-.2,.3-.3,.3Z"/><path class="ag" d="M293.9,210.1h-6.5c-.1,0-.3-.1-.3-.3s.1-.3,.3-.3h6.5c.1,0,.3,.1,.3,.3s-.1,.3-.3,.3Z"/><path class="y" d="M260.6,196.3h-9.8c-.8,0-1.5-.6-1.7-1.5l-1.5-9.8c-.1-.8,.4-1.5,1.3-1.5h9.8c.8,0,1.5,.6,1.7,1.5l1.5,9.8c0,.9-.5,1.5-1.3,1.5h0Z"/><path class="ag" d="M237.9,160.8h-9.7c-.6,0-1.1-.5-1.3-1-.1-.6,.3-1,.9-1h9.7c.6,0,1.1,.5,1.3,1,0,.6-.4,1-.9,1h0Z"/><path class="ag" d="M253.9,160.8h-9.7c-.6,0-1.1-.5-1.3-1-.1-.6,.3-1,.9-1h9.7c.6,0,1.1,.5,1.3,1,0,.6-.4,1-.9,1h0Z"/><path class="ag" d="M271.1,160.8h-9.7c-.6,0-1.1-.5-1.3-1-.1-.6,.3-1,.9-1h9.7c.6,0,1.1,.5,1.3,1,.1,.6-.3,1-.9,1h0Z"/><path class="ag" d="M287.7,160.8h-9.7c-.6,0-1.1-.5-1.3-1-.1-.6,.3-1,.9-1h9.7c.6,0,1.1,.5,1.3,1,0,.6-.4,1-.9,1Z"/><path class="ag" d="M304.1,160.8h-9.7c-.6,0-1.1-.5-1.3-1-.1-.6,.3-1,.9-1h9.7c.6,0,1.1,.5,1.3,1,.2,.6-.2,1-.9,1Z"/><path class="h" d="M290.6,178.4h-9.8c-.8,0-1.5-.6-1.7-1.5l-1.5-9.8c-.1-.8,.4-1.5,1.3-1.5h9.8c.8,0,1.5,.6,1.7,1.5l1.5,9.8c.1,.9-.5,1.5-1.3,1.5h0Z"/><path class="g" d="M285,175.8c-.3,0-.4-.1-.5-.3-1-1.4-2.3-2.7-3.7-3.8-.2-.1-.2-.4-.1-.6,.1-.1,.4-.1,.6,.1,1.3,1,2.3,2,3.3,3.2,.5-2.6,1.8-4.9,3.6-6.6,.1-.1,.4-.1,.6,.1,.3,.1,.3,.4,.1,.6-1.9,1.9-3.2,4.5-3.6,7.1,0,.2-.2,.2-.3,.2h0Z"/><path class="h" d="M263.5,214.7h-9.8c-.8,0-1.5-.6-1.7-1.5l-1.5-9.8c-.1-.8,.4-1.5,1.3-1.5h9.8c.8,0,1.5,.6,1.7,1.5l1.5,9.8c.1,.8-.6,1.5-1.3,1.5h0Z"/><path class="g" d="M257.9,212q-.1,0,0,0c-.3,0-.4-.1-.5-.3-1-1.4-2.3-2.7-3.7-3.8-.3-.1-.3-.4-.1-.6,.1-.1,.4-.1,.6,.1,1.3,1,2.3,2,3.3,3.2,.5-2.6,1.8-4.9,3.6-6.6,.1-.1,.4-.1,.6,.1,.3,.1,.3,.4,.1,.6-1.9,1.9-3.2,4.5-3.6,7.1-.1,.1-.2,.2-.3,.2h0Z"/><path class="g" d="M271.4,194c-.3,0-.4-.1-.5-.3-1-1.4-2.3-2.7-3.7-3.8-.3-.1-.3-.4-.1-.6,.1-.1,.4-.1,.6,.1,1.3,1,2.3,2,3.3,3.2,.5-2.6,1.8-4.9,3.6-6.6,.1-.1,.4-.1,.6,.1,.3,.1,.3,.4,.1,.6-1.9,1.9-3.2,4.5-3.6,7.1,0,.1-.1,.2-.3,.2h0Z"/><path class="ak" d="M219.9,39.5h-81.7c-6.1,0-11,5-11,11V217.6c0,6.1,5,11,11,11h81.7c6.1,0,11-5,11-11V50.6c-.1-6.2-5-11.1-11-11.1Z"/><path class="aj" d="M225.7,39.5h-81.7c-6.1,0-11,5-11,11V217.6c0,6.1,5,11,11,11h81.7c6.1,0,11-5,11-11V50.6c0-6.2-5-11.1-11-11.1h0Z"/><path class="y" d="M230.7,52.8h-93.1V212h93.1V52.8h0Z"/><path class="an" d="M189.4,221.4c0,2.6-2,4.6-4.6,4.6s-4.6-2-4.6-4.6,2-4.6,4.6-4.6,4.6,2.1,4.6,4.6Z"/><path class="n" d="M215,199h-58.9c-2.7,0-5-2.2-5-5v-3.1c0-2.7,2.2-5,5-5h58.9c2.7,0,5,2.2,5,5v3.1c-.2,2.8-2.3,5-5,5Z"/><path class="j" d="M184.2,169.7c-22.7,0-41.1-18.4-41.1-41.1s18.4-41.1,41.1-41.1,41.1,18.4,41.1,41.1c-.2,22.7-18.6,41.1-41.1,41.1Zm0-80.2c-21.4,0-39.1,17.4-39.1,39.1s17.4,39.1,39.1,39.1,39.1-17.4,39.1-39.1c-.2-21.5-17.6-39.1-39.1-39.1h0Z"/><path class="j" d="M208.3,146c9.6-13.3,6.6-31.9-6.7-41.6s-31.9-6.6-41.5,6.7c-9.6,13.3-6.6,31.9,6.7,41.5s31.9,6.7,41.5-6.6h0Z"/><path class="j" d="M197.4,175.6h-25c-.8,0-1.4-.6-1.4-1.4s.6-1.4,1.4-1.4h25c.8,0,1.4,.6,1.4,1.4s-.6,1.4-1.4,1.4Z"/><path class="j" d="M192.4,181.8h-15.1c-.8,0-1.4-.6-1.4-1.4s.6-1.4,1.4-1.4h15.1c.8,0,1.4,.6,1.4,1.4s-.6,1.4-1.4,1.4Z"/><path class="m" d="M145.8,75.4v-1.9c0-3.6,2.9-6.5,6.5-6.5h66.6c3.6,0,6.5,2.9,6.5,6.5v1.9c0,3.6-2.9,6.5-6.5,6.5h-66.6c-3.6-.2-6.5-3-6.5-6.5Z"/><path class="k" d="M217.9,78.8h-64.8c-2.4,0-4.5-2-4.5-4.5s2-4.5,4.5-4.5h64.8c2.4,0,4.5,2,4.5,4.5-.1,2.5-2,4.5-4.5,4.5Z"/><path d="M209.8,57.1h-48.7v.6h48.7v-.6h0Z"/><path class="q" d="M84.2,143.1s-.3-1.8-.3-2.2c0-.3,.4-1,.9-1.8s1.5-1.5,1.7-1.5,.3-.1,.6,.1c.4,.3,.5,.6,.5,.6,0,0,.5,.1,.6,.6,0,0,.5,.1,.5,.6,0,0,.5,.1,.5,.5,0,0-.4,.6-.4,1-.1,.3-.9,1.7-2,2.9,.2,.2-1.2,1-2.6-.8Z"/><path class="ac" d="M90.9,146.9c.2-2-.1-4.7-1.7-6.2-1-1.1-2.6-1.5-4.1-1.5-1.2,0-2.2,.4-2.9,1.3-1.2,1.3-1.4,3.4-1.2,5.2l9.9,1.2h0Zm-9.3-1.8c-.1-1.4,.1-3.3,1-4.5,.6-.8,1.5-1,2.6-1.1,1.4,0,2.7,.4,3.7,1.4,1.3,1.4,1.7,3.6,1.5,5.5l-8.8-1.3Z"/><path class="ai" d="M101.3,170.5l-1.8-22.8-3.9,22.4,2.8-.5,2.9,.9h0Z"/><path class="t" d="M95.5,170.1l-23.3-4.1,3.8-21.8,23.6,3.3c0,.1-4.1,22.6-4.1,22.6Z"/><path class="q" d="M87,144.1s-1.4,1.3-2.2,1.3-1.2-2-1.2-2l.6-1.3,2.8,2Z"/><path class="q" d="M86,141.1s.5,.8,.5,1.1c0,.2,2-.1,2-.1,0,0-1.7-1.6-2.5-1h0Z"/><path class="u" d="M86.1,138.3s-1.2,1.9-.9,2.2c.2,.3,.5,.1,.5,.1l-.1,1s.2,.8,1,.1c0,0,.2,.8,.9,.1,0,0,.4,.4,.6,.1,.4-.3,1-1.5,1-1.5,0,0,0-.4-.5-.5,0,0,0-.5-.6-.6,0,0-.1-.4-.8-.5,0,0-.4-.9-1.2-.8,.3,0,.2,.1,.1,.3h0Z"/><path class="q" d="M86.3,137.9s-1.3,1.9-.9,2.2c.3,.3,.5,.1,.5,.1l-.1,1s.3,.8,1,.3c0,0,.3,.8,.9,.1,0,0,.4,.4,.6,.1,.4-.3,1-1.5,1-1.5,0,0,0-.4-.5-.5,0,0,0-.5-.6-.6,0,0-.1-.4-.6-.5,0,0-.2-.9-1.2-.8,.1-.2,.1,0-.1,.1h0Z"/><path class="u" d="M84.3,140.9s1.4-.8,2.3-.8c.3,0,.4,0,.5,.3s-.1,.5-.8,.9c-.6,.3-1.2,.9-1.2,.9,0,0-.7,.3-.8-1.3h0Z"/><path class="q" d="M84,140.9s1.4-.8,2.3-.9c.2,0,.4,0,.5,.1s.3,.5-.6,.9c-.6,.4-1.2,1.1-1.2,1.1,0,0-.6,.4-1-1.2Z"/><path class="am" d="M58.8,225.8c1.2,.4,1.4,2.2,2.4,2.8,.9,.5,5.5,.9,5.6-.5s-1.9-2.7-2.8-3.4c-.9-.8-3.1-3.1-3.4-3.9,0,0-.4,.6-1.5,.4-1.2-.1-1.3-.5-1.3-.5,0,1.1-.4,1.9-.5,2.3-.4,1.4,.3,2.4,1.5,2.8h0Z"/><path class="am" d="M51.4,226c.9,.8,1,2,1.9,2.6,.2,.1,.8,.4,1.4,.4,1.2,.3,2.6,.3,3.3-.1,.3-.1,.4-.4,.4-.6,.1-1.4-1.9-3.1-2.9-3.7-.6-.4-1.2-1.4-1.7-2.4-.3-.6-.5-1.1-.8-1.5,0,0,0,.1-.3,.3-.3,.1-.5,.2-1.2,.1-.9-.1-1.3-.4-1.4-.5-.1,.9-.5,1.8-.6,2.3,0,1.3,1,2.4,1.9,3.1h0Z"/><path class="ad" d="M59.4,113.2s-3.6-.4-4.8,3.1c-1.3,3.4-2.5,4.6-2.7,6.4-.6,7.3-4.1,5.6-3.1,9.9,1,4.2,1.7,4.9,1.7,4.9l8.2-1.7h8.3s-3.2-1.7-2.6-5.1c.8-3.4,2.6-9.1,1.5-12.9-1-3.8-4.4-4.3-6.5-4.6h0Z"/><path class="q" d="M65.3,162.4s3.1,10.5,3.6,13.1,2,15.7,2.2,17.9-5,12.5-5.2,13.3c-1,2.9-5.5,13.4-5.5,13.4,0,0-2.8,1.7-2.6-.8,1-7.5,1.4-9.3,2-13.1,1.5-8.6,4.5-9.6,4.1-10.8-4.7-12.5-5.6-21.1-6.2-21.7-.6-.8-.8,.4-1,2-.4,1.7,.1,12.9-.5,17.1-.4,2.3-1.2,7.6-1.4,10.7-.3,3.1-1.7,17.1-1.7,17.1,0,0-.1,.5-2.3-.6-.4-.2-2-12.5-2-16.1s1.5-4.1,.2-11.1c-2.8-15.1-2.4-17.6,.9-28.4,7.7-26.8,15.4-2,15.4-2h0Z"/><path class="af" d="M5.5,151.8l23.1,2.9,3.8-21.1-24.1-4.2-2.8,22.4h0Z"/><path class="q" d="M30.1,128.7s-.9-1.7-1-1.9c-.1-.3-.9-.6-1.7-.9-.9-.4-2.2-.4-2.3-.3s-.2,.1-.4,.5c-.2,.4,0,.8,0,.8,0,0-.4,.4-.3,.9,0,0-.4,.4-.1,.9,0,0-.4,.4-.1,.8,0,0,.8,.4,.9,.5,.3,.3,1.8,.8,3.3,1.1,0,0,1.6-.1,1.7-2.4h0Z"/><path class="u" d="M27.6,128s.1,.9,.2,1.1c.1,.2-1.8,1-1.8,1,0,0,.4-1.9,1.6-2.1h0Z"/><path class="ac" d="M27.4,131.5c.8-2.8,.5-6.6-3.2-7.3-1.7-.2-3.2,0-4.5,1-1.7,1.4-2.5,4.1-2.5,6.2,0,.1,10.2,.1,10.2,.1Zm-9.8-.4c.1-1.9,.9-4.2,2.4-5.4,1.1-.9,2.6-1.2,4.1-.9,2.9,.5,3.6,3.3,2.9,6.2h-9.4v.1Z"/><path class="ac" d="M25.9,131.5c.8-2.8,1.2-6.6-2.5-7.3-1.7-.2-3.2,0-4.5,1-1.7,1.4-2.7,4.1-2.8,6.2h9.8v.1Zm-9.3-.4c.1-1.9,1.3-4.2,2.7-5.4,1.1-.9,2.5-1.2,4.1-.9,3.1,.5,2.9,3.3,2.3,6.2h-9.1v.1Z"/><path class="q" d="M31,129.8s-.8-.6-1-1.3c-.3-.6-1.8,2.6-1.8,2.6,0,0,1.8,.1,2.5,.6,.9,.5,.3-1.9,.3-1.9Z"/><path class="q" d="M25.3,125.6s2.2,.9,2,1.3c-.1,.4-.4,.4-.4,.4l.8,.8s.1,.8-.8,.8c0,0,.3,.6-.6,.6,0,0,0,.5-.5,.5-.4,0-1.8-.6-1.8-.6,0,0-.3-.2,.1-.8,0,0-.3-.5,.1-.9,0,0-.1-.4,.2-.9,0,0-.2-1,.5-1.3,.2,.1,.4,.1,.4,.1h0Z"/><path class="q" d="M29,126.8s-1.5,.1-2.4,.5c-.1,.1-.4,.2-.4,.4,0,.3,.4,.5,1,.4,.6,0,1.5,.3,1.5,.3,0,0,.9-.1,.3-1.6Z"/><path class="u" d="M28.8,126.9s-1.7,0-2.4,.5c-.1,.1-.3,.2-.3,.5s.5,.5,1.2,.4c.6-.1,1.4,0,1.4,0,0,0,1,0,.1-1.4Z"/><path class="q" d="M29,126.8s-1.5,.1-2.4,.5c-.1,.1-.4,.2-.4,.4,0,.3,.4,.5,1,.4,.6,0,1.5,.3,1.5,.3,0,0,1,0,.3-1.6Z"/><path class="s" d="M0,150.2l8.3-20.8-2.8,22.4-2.4-1.4-3.1-.2H0Z"/><path class="h" d="M2.9,154.5l5.7-24,.3,24.6-2.7-1c.1,0-3.3,.4-3.3,.4Z"/><path class="r" d="M28.6,131.6c.1-.1,7.8,5.7,8.5,6.2,1.7,.9,3.4,.9,5.2,1,2,.1,4.5-.1,6.5,.2,1,.3,1.2,.5,1.8,1.7,1.5,3.1,2,6.9,2.2,10.2,.3,3.4-1.2,6-2.5,9.1-.5,1-1.2,2.2-.2,3.1,.9,.9,2.4,1,3.6,1.1,2.7,.4,6.9,.5,9.4-.5,3.2-1.3,2.6-5.4,2.9-8.2,.3-1.9,1.2-4.7,1.7-6.5s.5-2.6,.5-4.5c1,2.8,1.8,7.6,4.5,9.4,2,1.4,3.9-.5,5.4-1.8,2.8-2.4,5.6-4.9,8.4-7.4-.6-.5-1.2-1.1-1.8-1.7-.3-.1-.3-.2-.4-.4-.5-.4-.5-.6-1-.3-.4,.3-1.4,1.1-1.7,1.4-1,.9-1.9,1.5-2.9,2.4-.9,.8-2.4,2.8-3.8,2-1-.5-1.3-2.7-1.7-3.6-1-2.7-2-5.4-3.2-7.9-1.3-2.8-4.1-4.2-6.9-5.4-2.4-.9-5.6-.8-7.9-.1-1.7,.4-2.3,.5-4,.9-1.7,.5-3.1,1-4.7,1.4-1.9,.4-3.8,.5-5.7,.5-1.5,0-2.2-.3-3.4-1.1-1.8-1.1-4.2-3.3-6.1-4.2-1.3,0-1.7,2.1-2.7,3h0Z"/><path class="f" d="M8.9,155.1l27-2-2.2-21.8-25.1-.8,.3,24.6h0Z"/><path class="q" d="M56.9,127.5s.3,3.6-.4,4.6c-.6,1,.6,2.6,3.2,2,2.7-.5,2.4-2,2.4-2,0,0-.8-2.2-.5-4,.3-1.6-4.7-.6-4.7-.6h0Z"/><path class="q" d="M55.2,131.9s2.4,5.5,5.5,6.6c0,0,3.1-2.7,2.2-6.6,0,0-4-2.1-7.7,0Z"/><path class="q" d="M58.9,115.2s-4.7,.6-4.1,7.7c.6,7,4.8,6.4,5.1,6.4s4.2,.1,4.5-8.4c.1,0,.3-6.2-5.5-5.7Z"/><path class="ad" d="M59.4,117.7s-2.2,2.3-3.2,3.4c-1,1.2-1.2,3.4-1.2,3.4,0,0-1.8-2.2-1-4.6,.8-2.4,2.4-7.3,6.8-5.7,4.3,1.5,4.5,7.9,3.9,11.1,.1,.2-1.8-7-5.3-7.6h0Z"/><path class="u" d="M61.3,128.9s-2,1-4.1-.6c0,0,.8,1.3,2.2,1.4,1.3,.1,1.9-.8,1.9-.8Z"/><path class="r" d="M49.7,161.5s-4.7,9.9-1.5,30c0,0,9.7-.9,24.4-1.9,0,0-6.6-27-6.9-28.7-.3-1.8-16,.6-16,.6h0Z"/><path class="q" d="M60.4,219.8s-1.4,.9-2.7-.3l-.1,1s2.2,1.9,2.7-.1v-.6h.1Z"/><path class="q" d="M52.7,219.6s-.8,.8-2-.4l-.1,1.3s2,2.2,2.7,0l-.6-.9h0Z"/><path class="s" d="M65.8,159.3s-5.7,2.2-14-2.6c0,0-.4,.6-.6,1.7,0,0,7.5,4.7,14.5,2.4,0-.1,.2-1.1,.1-1.5Z"/><path class="r" d="M67.5,139.9c.6,1.7,.8,4.9,.8,4.9,0,0,.2,.8,.5,1.8,.1-4.6-1.3-6.7-1.3-6.7h0Z"/><path class="s" d="M59.8,132.3c.3,0,.6,0,.8-.1,.9-.1,1.4-.6,1.4-.6l-.1-.4s-.5,.5-1.4,.6c-1.2,.2-2.4-.1-3.7-.9l-.1,.4c1.2,.7,2.4,1,3.1,1Z"/><path class="w" d="M268.4,132.3c-1.9,3.4-4.5,4.7-4.5,4.7h-10.3c0,.1,16.4-7.3,14.8-4.7h0Z"/><path class="i" d="M260.5,158.9c-.3,.3-.3,.6-.1,1,.3,.6,1,1.4,2,2.2,.1,.1,.3,.1,.4,.2l.1,.1c.9,.8,.5,1,2.2,2.7,1.8,1.9,3.1,1.9,3.4,1.8,.3-.1-.3-1.1-1-2.3l-.1-.1c-.1-.1-.1-.3-.3-.5-.8-1.4-.6-2-.4-3.9,.1-1.7,2.5-9.1,2.5-9.1l-3.4-.6s-1,6-2.2,6.9c-.6,.5-1.3,.5-1.9,.9,0,0-.1,0-.1,.1-.5,0-.8,.2-1.1,.6h0Z"/><path class="ab" d="M260.5,158.9c-.3,.3-.3,.6-.1,1,.3,.6,1.1,1.4,2,2.2,.1,.1,.3,.1,.3,.2l.1,.1c.9,.8,.5,1,2.2,2.7,1.8,1.9,3.1,1.9,3.4,1.8,.3-.1-.3-1.1-1-2.3-.4-.1-2-.8-3.2-2.4-1.1-1.4-1.8-3.2-2.5-4.2,0,0-.1,0-.1,.1-.4,.2-.8,.4-1.1,.8h0Z"/><path class="i" d="M288.3,156.8c.3,1,1.8,.9,3.4,.5,1.7-.4,1.3,.1,3.7-.1,2.4-.3,3.2-1.1,3.2-1.5,.1-.4-1.1-.4-2.4-.6h-.5c-1.4-.1-2.5-1.1-3.8-1.9-1.3-.8-3.1-3.7-3.1-3.7l-3.3,.3s1.8,2.7,2.4,3.8c.4,.6,.4,1.5,.4,2.3v.9h0Z"/><path class="ab" d="M291.8,157.1c1.7-.4,1.3,.1,3.7-.1,2.4-.2,3.2-1.1,3.2-1.5,.1-.4-1.1-.4-2.4-.6,0,0-1.4,1-3.4,1-1.7,0-3.3-.4-4.5-.4v1.1c.2,1.2,1.7,1,3.4,.5h0Z"/><path class="p" d="M275.7,135.4l-3.1,8.3-4.1,10.8s-1.1,.1-2.2-.3c-1-.2-2-1-2-1,0,0,1.1-11.7,3.2-18.4,.5-1.8,1.1-3.1,1.8-3.9,3.4-3.5,6.4,4.5,6.4,4.5h0Z"/><path class="w" d="M247.4,127.7s20.5-6.9,25.1-5.5c4.6,1.5,18.4,28.8,18.4,28.8,0,0-.2,.4-1.1,.8-.8,.2-2.7,.2-2.7,.2,0,0-12.4-10.6-13.9-13.8-1.5-3.1-2-6-3.6-5.7-.9,.1-7.9,4.5-14.1,4.5h-9.1c-3.9-4.2-2.8-10.8-2.8-10.8l3.8,1.5h0Z"/><path class="aa" d="M261.7,80.5c-.9-.5-1.9-.8-2.7-.8,.3-.1,.6-.3,.6-.3-.5-.1-1.5,.3-1.5,.3-6.2-2.9-7.9,6.4-8,8.6,0,2.2-.3,4.7-3.6,6.4-6.6,3.3-1.8,10.6-1.8,10.6l2.6,5.1c0-1.8,8.9-10.5,13.4-13,1.1-1.4,1.8-4.1,1.8-4.3-.4,2.2-.8,3.3-1.1,3.9,3.7-2.9,2.6-15,.3-16.5h0Z"/><path class="i" d="M258.7,97.3s-2.2,.8-3.7,.1c-1.4-.6-2.4-2.9-2.4-2.9,.6,0,1.3-.6,1.9-4.2l.3,.1,4.6,1.7s-.4,1.4-.5,2.8c-.3,1.1-.4,2.2-.2,2.4h0Z"/><path class="aa" d="M253.6,89.1s-1.4-2.2-1.8-4.1c-.3-1.4,.4-6.4,5.5-5.6,0,0,1.4,.1,2.8,1,1.1,.8,2.7,2.3,.9,6.6l-.5,1.5-6.9,.6h0Z"/><path class="v" d="M259.1,92.6l-.3,1.5s-2.8-.6-3.2-2.4c-.3-1.8,3.5,.9,3.5,.9h0Z"/><path class="i" d="M260,93.3s-6.2-.9-5.6-4.7,.1-6.6,4.2-6.2c4,.4,4.6,1.9,4.7,3.3,0,1.4-1.6,7.8-3.3,7.6h0Z"/><path class="aa" d="M261.4,82.8s-2.4,4.3-5.1,4.6c-2.7,.3-3.7-.6-3.7-.6,0,0,2.3-1.3,3.1-3.9,0-.1,4.7-2.4,5.7-.1h0Z"/><path class="aa" d="M260.3,83.5s1.4,.9,1.8,1.8,.8,2.9,1.4,2.8c0,0,.9-3.3-.8-4.8s-2.4,.2-2.4,.2h0Z"/><path class="m" d="M242.6,127.8c.4,.9,1.4,1.1,2.8,1,2.7-.3,6.6-2,9.4-3.3,4.3-1.9,6.2-.1,7.6-1.3s-1.5-3.8,1-16.2c.9-4.2-4.7-13.1-4.7-13.1,0,0-.4,2.7-5.7-.5-.1-.1-2.3,2.9-4.2,6.8-2.2,4.2-4.3,9.2-3.7,11.9,1.3,4.7-3.4,12-2.5,14.7h0Z"/><path class="al" d="M242.6,127.8c.4,.9,1.4,1.1,2.8,1,1.8-.8,9.8-3.8,9.7-6-.1-3.1-1.5-3.2-.5-7,.8-3.1-6.5-8.8-7.8-9.9-2.2,4.2-2.3,4.3-1.7,7,1.3,4.9-3.5,12.2-2.5,14.9h0Z"/><path class="w" d="M272.6,143.9l-4.1,10.8s-1.1,.1-2.2-.3c-1-.2-2-1-2-1,0,0,1.1-13,3.7-19.9,0,0,2.3-.3,2.3,1.3-.1,5.6,2.3,9.1,2.3,9.1h0Z"/><path class="m" d="M258.7,94.7s5.4,.9,6,3.2c.6,2.3,4.3,16.1,4.3,16.1,0,0-2.8,.5-4.1-.8s-4.5-11.9-4.5-11.9l-1.7-6.6h0Z"/><path class="m" d="M253.1,94.4s-5.1,.3-6.9,2.8c-2.6,3.4-7.4,18.4-4.6,20.3,3.2,2.2,14.5,.6,14.5,.6,0,0,.4-1.8-.1-2.7s-9-2.3-9.4-2.7c-.4-.4,5-7.7,5-8.9s1.5-9.4,1.5-9.4h0Z"/><path class="a`" d="M253.3,122.3h21.9l4-13.7h-21.8l-4.1,13.7h0Z"/><path class="a`" d="M246.6,122.4h28.6v-.5h-28.6v.5Z"/><path class="ag" d="M355,242H12.1v-4.5c0-4.9,4-8.8,8.8-8.8H346.2c4.9,0,8.8,4,8.8,8.8v4.5h0Z"/><path class="o" d="M40.6,93.3v-.8c-.4,0-.9-.1-1.2-.3l.1-.5c.3,.1,.6,.3,1,.3,.5,0,.9-.3,.9-.8,0-.4-.3-.6-.8-.9-.8-.3-1.2-.6-1.2-1.3s.4-1,1.2-1.2v-.8h.5v.9c.4,0,.8,.1,.9,.3l-.1,.5c-.1-.1-.5-.3-.9-.3-.5,0-.8,.4-.8,.6,0,.4,.3,.5,.9,.8,.8,.3,1.2,.6,1.2,1.3,0,.5-.4,1.2-1.2,1.3v.8h-.6l.1,.1h0Z"/><path class="o" d="M40.8,94.7c-2.4,0-4.5-2-4.5-4.5s2-4.5,4.5-4.5,4.5,2,4.5,4.5-2.1,4.5-4.5,4.5Zm0-8.5c-2.3,0-4.2,1.9-4.2,4.2s1.9,4.2,4.2,4.2,4.2-1.9,4.2-4.2-1.9-4.2-4.2-4.2Z"/></g></g></g><g id="d"><g class="ao"><path class="j" d="M165.17,193.35v2.5h-1.46v-7.11h2.77c.53,0,1,.1,1.41,.29s.72,.47,.94,.83c.22,.36,.33,.77,.33,1.23,0,.7-.24,1.25-.72,1.65-.48,.4-1.14,.6-1.98,.6h-1.28Zm0-1.19h1.31c.39,0,.68-.09,.89-.27s.31-.44,.31-.78-.1-.63-.31-.84-.49-.33-.85-.33h-1.34v2.23Z"/></g><g class="ao"><path class="j" d="M173.79,194.39h-2.57l-.49,1.46h-1.56l2.65-7.11h1.36l2.66,7.11h-1.56l-.49-1.46Zm-2.17-1.19h1.78l-.89-2.66-.88,2.66Z"/></g><g class="ao"><path class="j" d="M178.73,191.94l1.48-3.2h1.6l-2.33,4.53v2.58h-1.49v-2.58l-2.33-4.53h1.61l1.47,3.2Z"/><path class="j" d="M190.73,195.85h-1.46l-2.85-4.68v4.68h-1.46v-7.11h1.46l2.86,4.69v-4.69h1.46v7.11Z"/><path class="j" d="M197.85,192.46c0,.7-.12,1.31-.37,1.84-.25,.53-.6,.93-1.06,1.22-.46,.29-.99,.43-1.58,.43s-1.11-.14-1.58-.42c-.46-.28-.82-.69-1.07-1.21-.25-.53-.38-1.13-.39-1.81v-.35c0-.7,.13-1.32,.38-1.85,.25-.53,.61-.94,1.07-1.22,.46-.29,.99-.43,1.58-.43s1.12,.14,1.58,.43c.46,.28,.82,.69,1.07,1.22,.25,.53,.38,1.15,.38,1.84v.32Zm-1.48-.32c0-.75-.13-1.31-.4-1.7-.27-.39-.65-.58-1.14-.58s-.87,.19-1.14,.57c-.27,.38-.4,.94-.41,1.68v.35c0,.73,.13,1.29,.4,1.69,.27,.4,.65,.6,1.15,.6s.87-.19,1.13-.58c.26-.39,.4-.95,.4-1.69v-.35Z"/><path class="j" d="M204.45,193.8l.96-5.06h1.46l-1.58,7.11h-1.47l-1.16-4.76-1.16,4.76h-1.47l-1.58-7.11h1.46l.96,5.05,1.17-5.05h1.24l1.17,5.06Z"/></g></g><g><path class="aj" d="M163.81,130.14h-1.31l-.49,2.79h-1.25l.49-2.79h-1.55v-1.17h1.75l.34-1.93h-1.58v-1.19h1.79l.5-2.83h1.24l-.5,2.83h1.32l.5-2.83h1.25l-.5,2.83h1.49v1.19h-1.7l-.34,1.93h1.53v1.17h-1.73l-.49,2.79h-1.25l.49-2.79Zm-1.11-1.17h1.31l.34-1.93h-1.32l-.33,1.93Z"/><path class="aj" d="M175.96,123.02v6.53c0,1.08-.34,1.94-1.02,2.57s-1.61,.95-2.78,.95-2.08-.31-2.76-.92-1.03-1.46-1.04-2.53v-6.61h2.04v6.54c0,.65,.16,1.12,.47,1.42,.31,.3,.74,.45,1.29,.45,1.15,0,1.73-.6,1.75-1.81v-6.6h2.05Z"/><path class="aj" d="M182.78,130.33c0-.39-.14-.68-.41-.89s-.76-.42-1.47-.65c-.71-.23-1.27-.46-1.68-.68-1.13-.61-1.69-1.43-1.69-2.46,0-.54,.15-1.01,.45-1.43,.3-.42,.74-.75,1.3-.98,.57-.24,1.2-.35,1.9-.35s1.34,.13,1.89,.38c.55,.26,.98,.62,1.29,1.09s.46,1,.46,1.59h-2.04c0-.45-.14-.81-.43-1.06-.29-.25-.69-.38-1.21-.38s-.89,.11-1.16,.32c-.28,.21-.42,.49-.42,.83,0,.32,.16,.59,.49,.81,.32,.22,.8,.42,1.43,.61,1.16,.35,2.01,.78,2.54,1.3,.53,.52,.8,1.16,.8,1.93,0,.86-.33,1.53-.97,2.02-.65,.49-1.52,.73-2.62,.73-.76,0-1.46-.14-2.08-.42-.63-.28-1.1-.66-1.43-1.15-.33-.49-.49-1.05-.49-1.69h2.05c0,1.09,.65,1.64,1.96,1.64,.49,0,.86-.1,1.14-.3,.27-.2,.41-.47,.41-.83Z"/><path class="aj" d="M191.36,130.33c0-.39-.14-.68-.41-.89s-.76-.42-1.47-.65c-.71-.23-1.27-.46-1.68-.68-1.13-.61-1.69-1.43-1.69-2.46,0-.54,.15-1.01,.45-1.43s.74-.75,1.3-.98c.57-.24,1.2-.35,1.9-.35s1.34,.13,1.89,.38c.55,.26,.98,.62,1.29,1.09s.46,1,.46,1.59h-2.04c0-.45-.14-.81-.43-1.06-.29-.25-.69-.38-1.21-.38s-.89,.11-1.16,.32c-.28,.21-.42,.49-.42,.83,0,.32,.16,.59,.49,.81,.32,.22,.8,.42,1.43,.61,1.16,.35,2.01,.78,2.54,1.3,.53,.52,.8,1.16,.8,1.93,0,.86-.33,1.53-.97,2.02-.65,.49-1.52,.73-2.62,.73-.76,0-1.46-.14-2.08-.42-.63-.28-1.1-.66-1.43-1.15-.33-.49-.49-1.05-.49-1.69h2.05c0,1.09,.65,1.64,1.96,1.64,.49,0,.86-.1,1.14-.3,.27-.2,.41-.47,.41-.83Z"/><path class="aj" d="M194.79,132.93v-9.92h3.05c.87,0,1.65,.2,2.34,.59,.69,.39,1.22,.95,1.61,1.68,.39,.72,.58,1.55,.58,2.47v.46c0,.92-.19,1.74-.57,2.46-.38,.72-.91,1.27-1.6,1.67-.69,.4-1.47,.59-2.34,.6h-3.07Zm2.04-8.26v6.62h.99c.8,0,1.41-.26,1.83-.78,.42-.52,.64-1.27,.65-2.24v-.52c0-1.01-.21-1.77-.63-2.29-.42-.52-1.03-.78-1.83-.78h-1.01Z"/><path class="aj" d="M205.29,126.38l-2.14-.61,.4-1.23,2.12,.85-.14-2.37h1.33l-.14,2.42,2.06-.84,.4,1.25-2.18,.61,1.43,1.81-1.08,.77-1.24-1.99-1.23,1.92-1.08-.74,1.47-1.85Z"/></g></svg>